<?xml version="1.0" encoding="UTF-8"?>
<svg width="182px" height="331px" viewBox="0 0 182 331" version="1.1" xmlns="http://www.w3.org/2000/svg" xmlns:xlink="http://www.w3.org/1999/xlink">
    <!-- Generator: Sketch 49.3 (51167) - http://www.bohemiancoding.com/sketch -->
    <title>Untitled 2</title>
    <desc>Created with Sketch.</desc>
    <defs></defs>
    <g id="Page-1" stroke="none" stroke-width="1" fill="none" fill-rule="evenodd">
        <g id="SNA071002">
            <path d="M181.074,184.447 C172.637,189.648 164.855,203.397 164.082,213.404 C162.758,230.531 170.777,255.668 154.746,272.963 C141.422,269.74 125.086,272.332 120.023,273 C119.68,269.578 116.527,265.475 111.897,265.369 C110.404,257.963 107.221,246.516 105.435,241.342 C110.467,238.187 111.096,236.553 113.082,233.043 C109.576,224.895 107.34,209.922 107.457,201.908 C121.313,205.242 133.266,204.58 137.937,196.002 C141.969,188.596 137.152,175.398 135.758,169.176 C133.305,158.219 134.586,153.961 129.219,148.762 C129.488,148.46 129.75,148.153 130.008,147.85 C143.027,143.442 157.637,128.127 160.937,113.127 C162.527,105.895 160.734,101.817 158.941,99.272 C159.418,81.569 147.711,66.696 140.574,61.551 C159.258,61.571 168.094,48.211 168.094,32.127 C168.094,16.278 155.953,0.698 137.297,0.698 C120.699,0.698 108.189,13.524 108.189,30.122 C108.189,37.258 110.762,43.879 115.297,48.522 C107.176,47.36 87.216,51.2 79.003,59.028 C82.074,44.725 76.654,28.489 62.668,23.629 C44.47,17.313 24.078,33.172 24.013,55.799 C23.96,74.784 39.019,92.473 62.14,84.063 C57.277,95.225 57.464,113.145 63.306,123.004 C63.103,126.301 63.962,130.034 66.125,134.016 C68.011,137.491 71.193,140.544 74.937,143.085 C67.238,151.666 44.281,156.497 36.693,167.225 C30.333,176.221 30.74,186.199 42.693,191.23 C42.076,195.227 41.943,199.211 42.287,203.068 C40.771,207.82 37.021,218.871 34.267,227.297 C38.503,232.77 45.181,237.027 52.519,238.775 C54.595,241.932 60.548,253.715 64.132,260.256 C63.207,261.539 62.621,262.891 62.228,264.504 C47.794,258.691 19.478,248.285 5.48,267.445 C-8.419,286.471 7.378,308.572 35.246,313.041 C51.408,315.631 68.685,310.283 77.82,304.74 C85.027,323.408 114.34,333.123 133.859,330.227 C157.254,326.76 174.551,312.393 174.023,294.727 C173.672,282.902 165.398,276.164 157.406,273.773 C172.871,256.305 164.297,229.377 165.465,213.578 C166.113,204.877 171.773,193.07 181.074,184.447 Z M116.094,171.56 C116.832,175.359 117.312,179.154 117.5,182.254 C115.648,182.643 112.947,182.043 111.506,181.25 C113.064,177.514 114.781,173.947 116.094,171.56 Z M77.861,243.129 C79.812,243.709 81.921,244.223 84.119,244.594 C84.361,248.32 85.068,256.254 85.755,262.588 C83.697,258.098 79.044,246.609 77.861,243.129 Z" id="Fill-1" fill="#000000"></path>
            <path d="M77.138,302.916 C69.974,306.955 52.119,313.416 35.539,310.682 C9.642,306.402 -5.981,285.877 6.757,268.486 C17.433,253.91 36.201,256.658 61.927,266.092 C61.337,271.395 65.392,277.195 81.779,277.978 C81.757,278.953 82.027,280.51 82.671,281.912 C77.951,286.377 75.787,297.551 77.138,302.916" id="Fill-2" fill="#F3B237"></path>
            <path d="M67.912,132.916 C61.427,120.983 67.712,111.657 79.501,110.159 C74.492,104.071 65.556,89.276 75.728,68.465 C87.037,45.334 99.693,58.854 104.088,63.073 C103.93,55.629 106.279,51.854 109.871,50.536 C115.918,48.329 125.789,53.364 131.367,58.141 C143.656,68.672 147.805,86.909 144.406,97.881 C149.516,94.963 162.57,96.516 158.801,112.704 C155.289,127.805 142.332,140.739 131.391,146.104 C132.527,144.61 133.508,143.172 134.375,141.987 C130.055,143.45 127.129,152.735 116.727,154.161 C103.986,155.911 97.689,147.381 91.759,147.538 C93.664,148.415 95.351,149.348 96.951,150.262 C91.285,149.295 73.806,143.764 67.912,132.916" id="Fill-3" fill="#FCE1C6"></path>
            <path d="M112.484,102.452 C119.047,100.034 127.129,100.829 128.82,106.151 C130.441,111.237 125.508,116.09 119.805,118.559 C114.301,120.942 104.959,121.127 102.932,115.666 C101.033,110.547 105.006,105.21 112.484,102.452" id="Fill-4" fill="#000000"></path>
            <path d="M113.082,103.735 C119.117,101.51 126.113,102.2 127.477,106.481 C128.75,110.481 124.676,114.707 119.269,117.043 C114.094,119.276 105.869,119.374 104.328,115.229 C102.658,110.729 106.502,106.165 113.082,103.735" id="Fill-5" fill="#000000"></path>
            <path d="M112.068,266.238 C112.264,267.287 112.432,268.242 112.537,269.063 C113.064,273.695 104.725,278.045 98.685,278.289 C92.972,278.514 88.876,276.074 87.91,274.295 C87.341,273.256 87.154,271.94 86.931,270.83 C77.966,278.373 86.796,290.766 103.859,286.693 C121.648,282.445 121.176,268.916 112.068,266.238" id="Fill-6" fill="#F3B237"></path>
            <path d="M35.771,227.338 C37.857,219.627 41.337,211.406 42.705,205.717 C43.085,208.459 43.552,210.768 44.439,213.31 C41.949,194.326 45.603,178.848 55.22,166.723 C77.873,153.176 100.393,160.407 109.033,183.082 C101.658,200.285 107.326,224.332 111.6,233.115 C100.965,247.793 82.238,242.713 72.3,239.355 L67.636,221.748 C63.474,220.746 57.943,218.508 54.265,216.584 C56.691,219.978 62.982,222.34 66.064,222.803 C66.716,225.27 69.126,233.912 70.025,237.203 C56.902,240.815 43.162,235.395 35.771,227.338" id="Fill-7" fill="#DC3B41"></path>
            <path d="M172.367,294.727 C172.887,309.604 157.84,324.174 133.391,327.861 C113.631,330.844 84.271,319.465 79.15,302.854 C77.669,298.055 79.472,287.602 83.328,283.014 C86.31,287.576 93.921,290.682 104.434,288.045 C115.254,285.328 119.895,279.848 120.059,274.137 C135.488,272.66 171.465,269.098 172.367,294.727" id="Fill-8" fill="#F3B237"></path>
            <path d="M151.25,113.008 C148.836,108.901 142,109.004 138.535,111.625 C140.363,111.387 141.992,111.166 143.555,111.116 C134.492,135.585 97.273,139 79.146,123.133 C80.468,122.085 81.962,121.204 83.744,120.487 C80.044,119.532 73.611,124.618 73.451,129.307 C75.113,126.842 76.615,125.385 78.488,123.725 C80.873,125.917 83.585,127.772 86.515,129.301 C95.849,142.729 102.957,152.127 114.188,151.819 C124.09,151.547 130.355,143.571 137.473,122.911 C140.551,119.68 143.016,115.768 144.574,111.122 C146.73,111.18 148.828,111.655 151.25,113.008" id="Fill-9" fill="#000000"></path>
            <path d="M112.314,138.606 C108.852,136.229 103.221,134.901 97.367,141.569 C94.666,138.575 91.068,133.903 87.886,129.973 C103.193,137.227 123.926,135.68 136.184,124.192 C134.398,128.383 132.031,134.622 128.777,139.934 C125.168,133.622 117.16,134.19 112.314,138.606" id="Fill-10" fill="#9D2D26"></path>
            <path d="M114.102,150.229 C109.285,150.372 103.685,148.227 98.164,142.438 C105.441,135.059 111.348,138.022 115.184,142.317 C115.031,141.332 114.246,140.165 113.035,139.149 C120.996,133.905 126.324,137.977 128.199,140.864 C125.223,146.262 120.148,150.055 114.102,150.229" id="Fill-11" fill="#EC967E"></path>
            <path d="M123.875,99.182 C127.254,93.514 126.707,84.885 124.894,78.795 C122.637,71.221 117.691,63.809 112.66,64.85 C107.65,65.887 109.977,84.194 114.105,92.815 C114.289,94.776 114.887,96.889 115.934,98.707 C113.299,98.987 110.609,99.698 108.019,100.887 C108.846,96.415 108.453,89.11 106.631,83.11 C104.398,75.75 100.285,67.645 95.013,68.875 C87.757,70.575 92.334,95.473 97.46,101.485 C98.154,103.596 99.232,105.397 100.529,106.067 C99.263,107.313 98.076,108.721 96.998,110.311 C103.549,104.299 111.717,98.059 127.359,100.372 C126.27,99.875 125.105,99.481 123.875,99.182" id="Fill-12" fill="#000000"></path>
            <path d="M106.906,101.426 C106.057,101.86 105.225,102.362 104.404,102.911 C105.008,98.309 102.232,90.848 98.712,91.741 C96.851,92.21 96.335,95.114 96.724,98.207 C93.875,91.7 89.492,71.086 95.375,69.702 C99.335,68.77 102.711,75.528 105.397,84.036 C106.76,88.342 107.744,97.094 106.906,101.426" id="Fill-13" fill="#FFFFFE"></path>
            <path d="M123.504,79.313 C121.297,71.428 116.891,64.832 112.812,65.672 C109.291,66.399 111.377,80.733 114.246,89.442 C114.578,87.821 115.316,86.633 116.445,86.348 C120.137,85.413 122.828,93.758 121.617,98.776 C122.07,98.835 122.516,98.897 122.953,98.985 C125.656,94.487 125.484,86.379 123.504,79.313" id="Fill-14" fill="#FFFFFE"></path>
            <path d="M110.182,30.274 C110.182,14.571 121.672,2.393 137.375,2.393 C155.137,2.393 166.078,17.168 166.078,32.125 C166.078,54.002 150.891,60.704 137.762,60.608 C149.574,69.508 157.191,84.063 157.219,97.78 C153.687,95.09 148.73,95.034 146.426,95.835 C148.695,85.024 145.18,67.565 131.984,56.752 C127.859,53.372 122.738,50.614 117.949,49.364 C113.146,44.391 110.182,37.813 110.182,30.274" id="Fill-15" fill="#000000"></path>
            <path d="M107.65,49.946 C104.986,51.608 103.088,55.54 103.088,60.491 C100.719,58.274 96.084,54.184 90.787,53.946 C96.693,51.834 102.564,50.579 107.65,49.946" id="Fill-16" fill="#000000"></path>
            <path d="M134.227,169.603 C132.687,162.715 132.742,154.073 128.633,149.409 C125.727,152.52 122.043,155.457 117.141,156.045 C108.725,157.059 104.057,154.37 98.779,151.317 C92.709,151.233 83.462,148.497 76.068,143.823 C67.906,152.96 45.552,158.055 38.451,168.152 C31.81,177.596 34.203,185.629 42.945,189.639 C46.138,172.207 57.64,155.366 80.158,147.922 C70.613,152.391 63.265,157.75 57.464,163.94 C79.296,151.637 102.113,160 109.725,181.512 C111.107,177.889 113.516,172.969 115.641,169.363 C115.133,167.053 114.539,164.797 113.863,162.743 C117.305,165.071 121.148,186.029 117.102,188.865 C117.508,188.055 117.652,186.162 117.57,183.66 C116.016,183.873 112.522,183.791 110.998,182.478 C109.049,187.313 107.685,193.67 107.469,200.496 C119.238,203.008 131.644,202.984 136.125,194.963 C139.894,188.227 135.828,176.734 134.227,169.603" id="Fill-17" fill="#000000"></path>
            <path d="M80.158,147.922 C75.095,147.079 57.564,157.356 55.191,164.008 C61.208,157.151 69.429,151.465 80.158,147.922" id="Fill-18" fill="#FFFFFE"></path>
            <path d="M76.15,242.596 C74.123,241.928 72.324,241.207 70.841,240.525 C70.701,240.07 70.525,239.279 70.279,238.469 C65.603,240.193 59.925,240.334 54.652,239.418 C57.429,244.065 66.043,261.467 67.888,263.623 C69.763,265.822 79.003,267.908 85.789,265.586 C82.882,261.111 77.802,248.553 76.15,242.596" id="Fill-19" fill="#000000"></path>
            <path d="M104.025,242.115 C98.712,244.846 92.257,245.531 85.763,244.77 C86.654,250.24 87.482,265.81 89.193,273.49 C90.623,275.594 94.373,276.797 98.685,276.549 C103.766,276.246 109.666,273.522 111.158,269.736 C109.877,262.105 105.916,247.576 104.025,242.115" id="Fill-20" fill="#000000"></path>
            <path d="M63.699,120.422 C65.164,114.516 70.341,110.428 77.433,109.534 C67.859,97.924 65.701,78.956 78.505,61.079 C77.855,61.561 77.222,62.032 76.775,62.389 C80.878,47.54 76.345,30.416 61.929,25.323 C45.458,19.495 26.353,34.952 26.07,55.381 C25.824,73.182 39.453,91.551 64.25,81.96 C57.74,97 60.535,113.807 63.699,120.422" id="Fill-21" fill="#000000"></path>
            <path d="M93.107,171.037 C97.736,172.166 98.486,181.018 96.259,188.69 C94.156,195.949 89.375,202.131 83.164,200.52 C71.607,197.514 82.753,168.516 93.107,171.037" id="Fill-22" fill="#FFFFFE"></path>
            <path d="M61.296,166.479 C64.507,167.495 64.085,175.105 62.386,181.791 C60.546,189.039 56.439,196.365 52.068,194.969 C44.15,192.428 54.412,164.307 61.296,166.479" id="Fill-23" fill="#FFFFFE"></path>
            <path d="M93.107,171.037 C97.736,172.166 98.486,181.018 96.259,188.69 C94.156,195.949 89.375,202.131 83.164,200.52 C71.607,197.514 82.753,168.516 93.107,171.037" id="Fill-24" fill="#000000"></path>
            <path d="M61.296,166.479 C64.507,167.495 64.085,175.105 62.386,181.791 C60.546,189.039 56.439,196.365 52.068,194.969 C44.15,192.428 54.412,164.307 61.296,166.479" id="Fill-25" fill="#000000"></path>
            <path d="M92.755,172.078 C99.98,173.836 94.261,202.014 83.281,199.477 C74.152,197.361 84.357,170.039 92.755,172.078" id="Fill-26" fill="#FFFFFE"></path>
            <path d="M60.968,167.338 C65.246,168.498 58.771,195.66 52.533,194.045 C46.291,192.422 55.958,165.985 60.968,167.338" id="Fill-27" fill="#FFFFFE"></path>
            <path d="M96.224,296.812 C108.559,285.557 129.281,278.695 141.769,278.695 C122.25,282.603 113.457,286.152 96.224,296.812" id="Fill-28" fill="#000000"></path>
            <path d="M38.04,263.049 C53.597,263.049 70.81,278.672 74.208,283.516 C64.496,274.67 51.394,265.764 38.04,263.049" id="Fill-29" fill="#000000"></path>
            <path d="M81.921,276.291 C66.693,275.537 60.048,270.199 64.707,261.299 C65.703,263.086 66.453,264.322 66.781,264.631 C69.716,267.352 78.185,269.353 86.24,266.772 C86.398,267.838 86.568,268.723 86.75,269.699 C83.783,271.647 82.396,273.902 81.921,276.291" id="Fill-30" fill="#F3B237"></path>
            <path d="M115.641,169.363 C115.133,167.053 114.539,164.797 113.863,162.743 C113.041,164.192 114.652,169.307 115.641,169.363" id="Fill-31" fill="#FFFFFE"></path>
            <path d="M117.102,188.865 C117.508,188.055 117.652,186.162 117.57,183.66 C116.809,183.73 116.238,187.664 117.102,188.865" id="Fill-32" fill="#FFFFFE"></path>
        </g>
    </g>
</svg>